<?xml version="1.0" encoding="UTF-8" ?>
<!DOCTYPE svg PUBLIC "-//W3C//DTD SVG 1.1//EN" "http://www.w3.org/Graphics/SVG/1.1/DTD/svg11.dtd">
<svg width="64pt" height="64pt" viewBox="0 0 64 64" version="1.1" xmlns="http://www.w3.org/2000/svg">
<g id="#fcb327ff">
<path fill="#fcb327" opacity="1.00" d=" M 30.47 2.69 C 32.41 1.30 34.58 2.65 36.33 3.62 C 43.05 7.58 49.91 11.31 56.62 15.28 C 58.51 16.19 59.71 18.56 58.42 20.46 C 56.77 22.24 54.46 23.20 52.43 24.45 C 46.24 27.85 40.31 31.70 34.03 34.92 C 32.35 36.02 30.56 34.70 29.04 33.98 C 22.52 30.17 15.98 26.40 9.43 22.64 C 8.08 21.75 6.25 20.91 6.10 19.07 C 5.63 16.80 7.95 15.50 9.58 14.53 C 16.58 10.64 23.45 6.52 30.47 2.69 Z" />
</g>
<g id="#2c2e2fff">
<path fill="#2c2e2f" opacity="1.00" d=" M 6.08 31.99 C 5.90 29.56 8.67 28.64 10.16 27.29 C 16.88 31.12 23.48 35.20 30.30 38.84 C 32.72 40.34 35.29 38.59 37.42 37.43 C 43.19 33.99 49.05 30.70 54.84 27.29 C 56.33 28.64 59.09 29.55 58.92 31.98 C 59.02 34.15 56.76 35.11 55.25 36.13 C 48.87 39.74 42.54 43.45 36.20 47.13 C 34.60 47.86 32.77 49.34 30.99 48.20 C 23.99 44.62 17.37 40.31 10.46 36.55 C 8.76 35.37 6.06 34.46 6.08 31.99 Z" />
<path fill="#2c2e2f" opacity="1.00" d=" M 7.30 47.73 C 4.15 45.15 7.63 41.80 10.19 40.60 C 16.81 44.42 23.36 48.36 30.05 52.03 C 32.08 53.35 34.48 52.48 36.34 51.33 C 42.50 47.73 48.68 44.18 54.85 40.60 C 56.34 41.90 58.88 42.75 58.93 45.07 C 59.10 47.53 56.45 48.59 54.75 49.73 C 47.96 53.47 41.37 57.59 34.56 61.28 C 32.07 62.91 29.53 60.74 27.36 59.62 C 20.77 55.51 13.73 52.09 7.30 47.73 Z" />
</g>
</svg>
